<?xml version="1.0" encoding="utf-8"?>
<!-- Generator: Adobe Illustrator 22.0.0, SVG Export Plug-In . SVG Version: 6.00 Build 0)  -->
<svg version="1.1" id="Laag_1" xmlns="http://www.w3.org/2000/svg" xmlns:xlink="http://www.w3.org/1999/xlink" x="0px" y="0px"
	 viewBox="0 0 32 40" style="enable-background:new 0 0 32 40;" xml:space="preserve">
<style type="text/css">
	.st0{fill:#6F6F6F;}
</style>
<g>
	<path class="st0" d="M30.4,12.7l-3.1-0.6c-0.2-0.4-0.3-0.9-0.5-1.3l1.7-2.6c0.5-0.8,0.4-1.8-0.2-2.5l-1.9-1.9
		c-0.4-0.4-0.9-0.6-1.4-0.6c-0.4,0-0.8,0.1-1.1,0.3l-2.6,1.7c-0.4-0.2-0.8-0.4-1.3-0.5l-0.6-3.1c-0.2-0.9-1-1.6-2-1.6h-2.7
		c-1,0-1.8,0.7-2,1.6l-0.6,3.1c-0.4,0.2-0.9,0.3-1.3,0.5L8.2,3.5C7.8,3.2,7.4,3.1,7.1,3.1c-0.5,0-1,0.2-1.4,0.6L3.7,5.7
		C3.1,6.3,2.9,7.4,3.5,8.2l1.7,2.6c-0.2,0.4-0.4,0.8-0.5,1.3l-3.1,0.6c-0.9,0.2-1.6,1-1.6,2v2.7c0,1,0.7,1.8,1.6,2l3.1,0.6
		c0.2,0.4,0.3,0.9,0.5,1.3l-1.7,2.6c-0.5,0.8-0.4,1.9,0.2,2.5l1.9,1.9c0.4,0.4,0.9,0.6,1.4,0.6c0.4,0,0.8-0.1,1.1-0.3l2.6-1.7
		c0.4,0.2,0.8,0.4,1.3,0.5l0.6,3.1c0.2,0.9,1,1.6,2,1.6h2.7c1,0,1.8-0.7,2-1.6l0.6-3.1c0.4-0.2,0.9-0.3,1.3-0.5l2.6,1.7
		c0.3,0.2,0.7,0.3,1.1,0.3c0.5,0,1-0.2,1.4-0.6l1.9-1.9c0.7-0.7,0.8-1.7,0.2-2.5l-1.7-2.6c0.2-0.4,0.4-0.8,0.5-1.3l3.1-0.6
		c0.9-0.2,1.6-1,1.6-2v-2.7C32,13.7,31.3,12.9,30.4,12.7z M26.9,18c-0.7,0.1-1.3,0.6-1.5,1.3c-0.1,0.4-0.3,0.7-0.4,1.1
		c-0.3,0.6-0.3,1.4,0.1,2l1.7,2.6l-1.9,1.9l-2.6-1.7c-0.3-0.2-0.7-0.3-1.1-0.3c-0.3,0-0.6,0.1-0.9,0.2c-0.3,0.2-0.7,0.3-1.1,0.4
		c-0.7,0.2-1.2,0.8-1.3,1.5L17.4,30h-2.7L14,26.9c-0.1-0.7-0.6-1.3-1.3-1.5c-0.4-0.1-0.7-0.3-1.1-0.4c-0.3-0.1-0.6-0.2-0.9-0.2
		c-0.4,0-0.8,0.1-1.1,0.3l-2.6,1.7l-1.9-1.9l1.7-2.6c0.4-0.6,0.4-1.3,0.1-2c-0.2-0.3-0.3-0.7-0.4-1.1c-0.2-0.7-0.8-1.2-1.5-1.3
		L2,17.4l0-2.7L5.1,14c0.7-0.1,1.3-0.6,1.5-1.3C6.7,12.4,6.8,12,7,11.6c0.3-0.6,0.3-1.4-0.1-2L5.1,7.1l1.9-1.9l2.6,1.7
		c0.3,0.2,0.7,0.3,1.1,0.3c0.3,0,0.6-0.1,0.9-0.2c0.3-0.2,0.7-0.3,1.1-0.4c0.7-0.2,1.2-0.8,1.3-1.5L14.6,2l2.7,0L18,5.1
		c0.1,0.7,0.6,1.3,1.3,1.5C19.6,6.7,20,6.8,20.4,7c0.3,0.1,0.6,0.2,0.9,0.2c0.4,0,0.8-0.1,1.1-0.3l2.6-1.7l1.9,1.9l-1.7,2.6
		c-0.4,0.6-0.4,1.3-0.1,2c0.2,0.3,0.3,0.7,0.4,1.1c0.2,0.7,0.8,1.2,1.5,1.3l3.1,0.6l0,2.7L26.9,18z"/>
	<path class="st0" d="M16,9c-3.9,0-7,3.1-7,7c0,3.9,3.1,7,7,7s7-3.1,7-7S19.9,9,16,9z M16,22.1c-3.4,0-6.1-2.7-6.1-6.1
		c0-3.4,2.7-6.1,6.1-6.1c3.4,0,6.1,2.7,6.1,6.1C22.1,19.4,19.4,22.1,16,22.1z"/>
	<path class="st0" d="M16,12c-2.2,0-4,1.8-4,4c0,2.2,1.8,4,4,4c2.2,0,4-1.8,4-4S18.2,12,16,12z M16,19c-1.7,0-3-1.3-3-3s1.3-3,3-3
		s3,1.3,3,3S17.7,19,16,19z"/>
</g>
</svg>
